<?xml version="1.0" encoding="UTF-8"?>
<svg id="Layer_1" data-name="Layer 1" xmlns="http://www.w3.org/2000/svg" viewBox="0 0 931.4 861.96">
  <defs>
    <style>
      .cls-1 {
        fill: #5db8e8;
      }

      .cls-2 {
        fill: #31a6da;
      }

      .cls-3 {
        fill: #78cbc3;
      }
    </style>
  </defs>
  <path class="cls-2" d="M348.2,780.1c4.45-79.27,15.59-155.73,33.95-233.25,9.08-38.35,19.82-76.31,32.18-113.73,12.2-36.95,26.39-74.59,41.42-109.42,15.73-36.46,33.07-72.23,51.95-107.16,8.88-16.43,17.81-32.98,28.11-48.58,8.68-13.15,19.99-26.93,32.46-35.26,3.37-2.25,6.87-4.3,10.52-6.06,.86-.42,1.73-.82,2.61-1.21-2.24,.97,0,.02,.4-.12,2.26-.81,4.5-1.61,6.81-2.27,3.68-1.06,7.43-1.85,11.22-2.46-2.95,.47,2.54-.23,3.16-.27,2.15-.16,4.31-.24,6.47-.25,3.85-.02,7.69,.2,11.51,.63,2.47,.28-2.15-.37,.3,.06,.71,.12,1.42,.24,2.13,.37,2.36,.44,4.71,.96,7.03,1.57,3.71,.98,7.36,2.2,10.93,3.61-2.53-1,2.51,1.18,2.98,1.42,1.93,.95,3.83,1.98,5.68,3.08,1.65,.97,3.27,2,4.85,3.08,.79,.54,1.57,1.1,2.34,1.66,1.97,1.43-1.5-1.26,.37,.29,3.14,2.59,6.11,5.36,8.85,8.38,1.27,1.4,2.52,2.84,3.67,4.34-1.47-1.92-.02,.03,.21,.37,.53,.78,1.08,1.55,1.6,2.34,2.35,3.55,4.43,7.27,6.24,11.12,.4,.86,.8,1.72,1.17,2.59-.26-.62-.85-2.38,.09,.37,.62,1.79,1.29,3.56,1.86,5.38,1.13,3.62,2.04,7.32,2.73,11.05,.17,.93,.33,1.87,.48,2.81-.43-2.67-.03-.27,.02,.25,.18,1.89,.36,3.78,.45,5.68,.21,4.26,.13,8.54-.23,12.79-.08,.94-.18,1.89-.29,2.83,.07-.64,.47-2.75-.06,.23-.33,1.86-.67,3.72-1.1,5.57-.9,3.93-2.14,7.74-3.51,11.52-.83,2.28,.87-1.87-.11,.35-.38,.87-.78,1.73-1.2,2.58-.83,1.72-1.73,3.41-2.68,5.07s-2.05,3.44-3.16,5.1c-.55,.83-1.12,1.65-1.7,2.46-.43,.6-2.07,2.68-.81,1.12-2.49,3.09-5.17,6.02-8.01,8.78-1.42,1.38-2.89,2.72-4.39,4.02-.75,.65-1.52,1.28-2.28,1.92l-1.16,.94c.87-.67,.89-.69,.07-.07-6.68,4.92-13.86,9.13-21.38,12.63-.92,.43-1.84,.85-2.77,1.25,2-.87-.33,.14-.63,.25-1.89,.74-3.79,1.47-5.71,2.14-4.32,1.51-8.7,2.83-13.14,3.94-9.35,2.35-15.8,3.3-24.85,3.96-20.4,1.49-41.67-.12-61.41-2.93-10.55-1.5-21.07-3.28-31.57-5.06-7.36-1.25-14.73,1.31-17.7,8.68s-.27,14.55,6.14,18.73c57.61,37.6,109.96,88.04,149.27,144.23,20.54,29.35,39.36,59.88,47.27,94.28,3.51,15.24,4.3,32.08,.35,46.94-2.27,8.52-4.5,13.63-9.27,21.19-1.08,1.71-2.24,3.36-3.4,5.02-.17,.24-1.7,2.24-.4,.58-.62,.79-1.27,1.57-1.92,2.34-2.61,3.09-5.41,6.03-8.34,8.82-6.55,6.22-10.16,8.93-17.56,13.76-6.97,4.55-14.26,8.6-21.72,12.29-15.65,7.74-31.08,13.59-48.29,19.02s-36.04,10.04-54.46,13.2c-17.25,2.96-34.88,4.71-53.52,5.32-37.72,1.23-72.92-2.29-108.99-11.16s-63.44-19.84-93.57-36.28c-14.54-7.94-28.61-16.74-42.11-26.34-7.29-5.19-11.87-8.67-17.99-13.62-6.44-5.22-12.72-10.62-18.84-16.2-12.24-11.17-23.82-23.05-34.65-35.59s-19.01-23.24-28.65-37.72c-4.59-6.9-8.95-13.94-13.12-21.1s-13.54-9.47-20.52-5.38-9.47,13.5-5.38,20.52c35.57,61.1,86.54,112.89,146.66,150.03,64.32,39.74,138.82,61.39,214.38,62.98,39.82,.84,79.99-3.88,118.54-13.91,18.66-4.85,36.96-11.04,54.75-18.48,16.87-7.05,33.45-14.93,48.38-25.6s28.73-23.78,38.19-39.95,14.48-36.04,14.46-55.3c-.06-39.3-17.48-77.05-37.87-109.78-40.03-64.26-92.59-120.12-153.9-164.45-7.42-5.37-14.98-10.54-22.65-15.55-3.85,9.14-7.71,18.28-11.56,27.42,43.98,7.45,89.7,15.11,133.78,4.03,35.46-8.91,71.04-30.95,86.59-65.28,15.08-33.3,12.62-74.2-8.25-104.64s-58.91-48.07-96.19-44.43c-18.93,1.85-36.93,8.06-52.24,19.52-16.29,12.19-29.02,27.82-40.02,44.83-22.11,34.19-40.52,71.31-58.01,108.03-36.24,76.11-65.64,155.49-87.48,236.91-21.92,81.73-36.25,165.56-42.85,249.92-.79,10.12-1.46,20.25-2.03,30.39-.44,7.85,7.21,15.35,15,15,8.5-.38,14.53-6.59,15-15h0Z"/>
  <path class="cls-1" d="M376.96,780.1c4.45-79.27,15.59-155.73,33.95-233.25,9.08-38.35,19.82-76.31,32.18-113.73,12.2-36.95,26.39-74.59,41.42-109.42,15.73-36.46,33.07-72.23,51.95-107.16,8.88-16.43,17.81-32.98,28.11-48.58,8.68-13.15,19.99-26.93,32.46-35.26,3.37-2.25,6.87-4.3,10.52-6.06,.86-.42,1.73-.82,2.61-1.21-2.24,.97,0,.02,.4-.12,2.26-.81,4.5-1.61,6.81-2.27,3.68-1.06,7.43-1.85,11.22-2.46-2.95,.47,2.54-.23,3.16-.27,2.15-.16,4.31-.24,6.47-.25,3.85-.02,7.69,.2,11.51,.63,2.47,.28-2.15-.37,.3,.06,.71,.12,1.42,.24,2.13,.37,2.36,.44,4.71,.96,7.03,1.57,3.71,.98,7.36,2.2,10.93,3.61-2.53-1,2.51,1.18,2.98,1.42,1.93,.95,3.83,1.98,5.68,3.08,1.65,.97,3.27,2,4.85,3.08,.79,.54,1.57,1.1,2.34,1.66,1.97,1.43-1.5-1.26,.37,.29,3.14,2.59,6.11,5.36,8.85,8.38,1.27,1.4,2.52,2.84,3.67,4.34-1.47-1.92-.02,.03,.21,.37,.53,.78,1.08,1.55,1.6,2.34,2.35,3.55,4.43,7.27,6.24,11.12,.4,.86,.8,1.72,1.17,2.59-.26-.62-.85-2.38,.09,.37,.62,1.79,1.29,3.56,1.86,5.38,1.13,3.62,2.04,7.32,2.73,11.05,.17,.93,.33,1.87,.48,2.81-.43-2.67-.03-.27,.02,.25,.18,1.89,.36,3.78,.45,5.68,.21,4.26,.13,8.54-.23,12.79-.08,.94-.18,1.89-.29,2.83,.07-.64,.47-2.75-.06,.23-.33,1.86-.67,3.72-1.1,5.57-.9,3.93-2.14,7.74-3.51,11.52-.83,2.28,.87-1.87-.11,.35-.38,.87-.78,1.73-1.2,2.58-.83,1.72-1.73,3.41-2.68,5.07s-2.05,3.44-3.16,5.1c-.55,.83-1.12,1.65-1.7,2.46-.43,.6-2.07,2.68-.81,1.12-2.49,3.09-5.17,6.02-8.01,8.78-1.42,1.38-2.89,2.72-4.39,4.02-.75,.65-1.52,1.28-2.28,1.92l-1.16,.94c.87-.67,.89-.69,.07-.07-6.68,4.92-13.86,9.13-21.38,12.63-.92,.43-1.84,.85-2.77,1.25,2-.87-.33,.14-.63,.25-1.89,.74-3.79,1.47-5.71,2.14-4.32,1.51-8.7,2.83-13.14,3.94-9.35,2.35-15.8,3.3-24.85,3.96-20.4,1.49-41.67-.12-61.41-2.93-10.55-1.5-21.07-3.28-31.57-5.06-7.36-1.25-14.73,1.31-17.7,8.68s-.27,14.55,6.14,18.73c57.61,37.6,109.96,88.04,149.27,144.23,20.54,29.35,39.36,59.88,47.27,94.28,3.51,15.24,4.3,32.08,.35,46.94-2.27,8.52-4.5,13.63-9.27,21.19-1.08,1.71-2.24,3.36-3.4,5.02-.17,.24-1.7,2.24-.4,.58-.62,.79-1.27,1.57-1.92,2.34-2.61,3.09-5.41,6.03-8.34,8.82-6.55,6.22-10.16,8.93-17.56,13.76-6.97,4.55-14.26,8.6-21.72,12.29-15.65,7.74-31.08,13.59-48.29,19.02s-36.04,10.04-54.46,13.2c-17.25,2.96-34.88,4.71-53.52,5.32-37.72,1.23-72.92-2.29-108.99-11.16s-63.44-19.84-93.57-36.28c-14.54-7.94-28.61-16.74-42.11-26.34-7.29-5.19-11.87-8.67-17.99-13.62-6.44-5.22-12.72-10.62-18.84-16.2-12.24-11.17-23.82-23.05-34.65-35.59-11.15-12.91-19.01-23.24-28.65-37.72-4.59-6.9-8.95-13.94-13.12-21.1s-13.54-9.47-20.52-5.38-9.47,13.5-5.38,20.52c35.57,61.1,86.54,112.89,146.66,150.03,64.32,39.74,138.82,61.39,214.38,62.98,39.82,.84,79.99-3.88,118.54-13.91,18.66-4.85,36.96-11.04,54.75-18.48,16.87-7.05,33.45-14.93,48.38-25.6s28.73-23.78,38.19-39.95,14.48-36.04,14.46-55.3c-.06-39.3-17.48-77.05-37.87-109.78-40.03-64.26-92.59-120.12-153.9-164.45-7.42-5.37-14.98-10.54-22.65-15.55-3.85,9.14-7.71,18.28-11.56,27.42,43.98,7.45,89.7,15.11,133.78,4.03,35.46-8.91,71.04-30.95,86.59-65.28,15.08-33.3,12.62-74.2-8.25-104.64-21.16-30.87-58.91-48.07-96.19-44.43-18.93,1.85-36.93,8.06-52.24,19.52-16.29,12.19-29.02,27.82-40.02,44.83-22.11,34.19-40.52,71.31-58.01,108.03-36.24,76.11-65.64,155.49-87.48,236.91s-36.25,165.56-42.85,249.92c-.79,10.12-1.46,20.25-2.03,30.39-.44,7.85,7.21,15.35,15,15,8.5-.38,14.53-6.59,15-15h0Z"/>
  <path class="cls-3" d="M395.53,780.1c4.45-79.27,15.59-155.73,33.95-233.25,9.08-38.35,19.82-76.31,32.18-113.73,12.2-36.95,26.39-74.59,41.42-109.42,15.73-36.46,33.07-72.23,51.95-107.16,8.88-16.43,17.81-32.98,28.11-48.58,8.68-13.15,19.99-26.93,32.46-35.26,3.37-2.25,6.87-4.3,10.52-6.06,.86-.42,1.73-.82,2.61-1.21-2.24,.97,0,.02,.4-.12,2.26-.81,4.5-1.61,6.81-2.27,3.68-1.06,7.43-1.85,11.22-2.46-2.95,.47,2.54-.23,3.16-.27,2.15-.16,4.31-.24,6.47-.25,3.85-.02,7.69,.2,11.51,.63,2.47,.28-2.15-.37,.3,.06,.71,.12,1.42,.24,2.13,.37,2.36,.44,4.71,.96,7.03,1.57,3.71,.98,7.36,2.2,10.93,3.61-2.53-1,2.51,1.18,2.98,1.42,1.93,.95,3.83,1.98,5.68,3.08,1.65,.97,3.27,2,4.85,3.08,.79,.54,1.57,1.1,2.34,1.66,1.97,1.43-1.5-1.26,.37,.29,3.14,2.59,6.11,5.36,8.85,8.38,1.27,1.4,2.52,2.84,3.67,4.34-1.47-1.92-.02,.03,.21,.37,.53,.78,1.08,1.55,1.6,2.34,2.35,3.55,4.43,7.27,6.24,11.12,.4,.86,.8,1.72,1.17,2.59-.26-.62-.85-2.38,.09,.37,.62,1.79,1.29,3.56,1.86,5.38,1.13,3.62,2.04,7.32,2.73,11.05,.17,.93,.33,1.87,.48,2.81-.43-2.67-.03-.27,.02,.25,.18,1.89,.36,3.78,.45,5.68,.21,4.26,.13,8.54-.23,12.79-.08,.94-.18,1.89-.29,2.83,.07-.64,.47-2.75-.06,.23-.33,1.86-.67,3.72-1.1,5.57-.9,3.93-2.14,7.74-3.51,11.52-.83,2.28,.87-1.87-.11,.35-.38,.87-.78,1.73-1.2,2.58-.83,1.72-1.73,3.41-2.68,5.07s-2.05,3.44-3.16,5.1c-.55,.83-1.12,1.65-1.7,2.46-.43,.6-2.07,2.68-.81,1.12-2.49,3.09-5.17,6.02-8.01,8.78-1.42,1.38-2.89,2.72-4.39,4.02-.75,.65-1.52,1.28-2.28,1.92l-1.16,.94c.87-.67,.89-.69,.07-.07-6.68,4.92-13.86,9.13-21.38,12.63-.92,.43-1.84,.85-2.77,1.25,2-.87-.33,.14-.63,.25-1.89,.74-3.79,1.47-5.71,2.14-4.32,1.51-8.7,2.83-13.14,3.94-9.35,2.35-15.8,3.3-24.85,3.96-20.4,1.49-41.67-.12-61.41-2.93-10.55-1.5-21.07-3.28-31.57-5.06-7.36-1.25-14.73,1.31-17.7,8.68s-.27,14.55,6.14,18.73c57.61,37.6,109.96,88.04,149.27,144.23,20.54,29.35,39.36,59.88,47.27,94.28,3.51,15.24,4.3,32.08,.35,46.94-2.27,8.52-4.5,13.63-9.27,21.19-1.08,1.71-2.24,3.36-3.4,5.02-.17,.24-1.7,2.24-.4,.58-.62,.79-1.27,1.57-1.92,2.34-2.61,3.09-5.41,6.03-8.34,8.82-6.55,6.22-10.16,8.93-17.56,13.76-6.97,4.55-14.26,8.6-21.72,12.29-15.65,7.74-31.08,13.59-48.29,19.02s-36.04,10.04-54.46,13.2c-17.25,2.96-34.88,4.71-53.52,5.32-37.72,1.23-72.92-2.29-108.99-11.16s-63.44-19.84-93.57-36.28c-14.54-7.94-28.61-16.74-42.11-26.34-7.29-5.19-11.87-8.67-17.99-13.62-6.44-5.22-12.72-10.62-18.84-16.2-12.24-11.17-23.82-23.05-34.65-35.59s-19.01-23.24-28.65-37.72c-4.59-6.9-8.95-13.94-13.12-21.1s-13.54-9.47-20.52-5.38-9.47,13.5-5.38,20.52c35.57,61.1,86.54,112.89,146.66,150.03,64.32,39.74,138.82,61.39,214.38,62.98,39.82,.84,79.99-3.88,118.54-13.91,18.66-4.85,36.96-11.04,54.75-18.48,16.87-7.05,33.45-14.93,48.38-25.6s28.73-23.78,38.19-39.95,14.48-36.04,14.46-55.3c-.06-39.3-17.48-77.05-37.87-109.78-40.03-64.26-92.59-120.12-153.9-164.45-7.42-5.37-14.98-10.54-22.65-15.55-3.85,9.14-7.71,18.28-11.56,27.42,43.98,7.45,89.7,15.11,133.78,4.03,35.46-8.91,71.04-30.95,86.59-65.28,15.08-33.3,12.62-74.2-8.25-104.64-21.16-30.87-58.91-48.07-96.19-44.43-18.93,1.85-36.93,8.06-52.24,19.52-16.29,12.19-29.02,27.82-40.02,44.83-22.11,34.19-40.52,71.31-58.01,108.03-36.24,76.11-65.64,155.49-87.48,236.91s-36.25,165.56-42.85,249.92c-.79,10.12-1.46,20.25-2.03,30.39-.44,7.85,7.21,15.35,15,15,8.5-.38,14.53-6.59,15-15h0Z"/>
</svg>